<!-- Generated by IcoMoon.io -->
<svg version="1.1" xmlns="http://www.w3.org/2000/svg" viewBox="0 0 1024 1024">
  <title></title>
  <g id="icomoon-ignore"></g>
  <path d="M512 1024c-282.77 0-512-229.232-512-512 0-282.77 229.23-512 512-512 282.768 0 512 229.23 512 512 0 282.768-229.232 512-512 512zM671.728 238.511c7.772-27.617-19.028-43.948-43.504-26.51l-341.68 243.411c-26.544 18.912-22.369 56.588 6.272 56.588h89.974v-0.696h175.355l-142.88 50.412-62.99 223.772c-7.775 27.616 19.023 43.948 43.502 26.508l341.68-243.408c26.544-18.912 22.368-56.588-6.272-56.588h-136.444l76.988-273.489z"></path>
</svg>