<svg aria-hidden="true" style="position: absolute; width: 0; height: 0; overflow: hidden;" version="1.1" xmlns="http://www.w3.org/2000/svg" xmlns:xlink="http://www.w3.org/1999/xlink">
  <defs>
    <symbol id="logo" viewBox="0 0 32 32">
      <path d="M16 32c-8.837 0-16-7.163-16-16s7.163-16 16-16c8.837 0 16 7.163 16 16s-7.163 16-16 16zM20.991 7.453c0.243-0.863-0.595-1.373-1.36-0.828l-10.678 7.607c-0.829 0.591-0.699 1.768 0.196 1.768h2.812v-0.022h5.48l-4.465 1.575-1.968 6.993c-0.243 0.863 0.594 1.373 1.359 0.828l10.678-7.607c0.829-0.591 0.699-1.768-0.196-1.768h-4.264l2.406-8.547z"></path>
    </symbol>

    <symbol id="arrow" viewBox="0 0 27 32">
      <path d="M0.4 0.939c1.309-0.856 2.617-0.586 3.79-0.18 1.624 0.586 3.204 1.352 4.648 2.254 6.543 4.327 10.468 10.501 12.093 18.118 0.406 1.938 0.542 3.966 0.812 6.175 1.805-1.037 2.752-3.065 4.557-4.237 0.226 0.901-0.226 1.487-0.587 1.983-1.489 2.028-3.023 4.056-4.602 6.040-0.767 0.946-1.354 1.037-2.166 0.225-1.715-1.668-2.752-3.696-3.068-6.039 0-0.090 0.135-0.225 0.316-0.451 1.94 0.496 1.489 2.975 3.159 3.876 0.722-3.11 0.18-6.084-0.632-8.969-0.857-3.020-1.985-5.904-3.79-8.473-1.76-2.524-3.971-4.552-6.407-6.445-2.391-1.938-5.099-3.155-8.122-3.876z"></path>
    </symbol>

    <symbol id="menu" viewBox="0 0 32 32">
      <path d="M4 22.667h24v-2.667h-24v2.667z"></path>
      <path d="M4 12h24v-2.667h-24v2.667z"></path>
    </symbol>

    <symbol id="close" viewBox="0 0 32 32">
      <path d="M26.667 7.303l-1.97-1.97-7.808 7.808-7.808-7.808-1.97 1.97 7.808 7.808-7.808 7.808 1.97 1.97 7.808-7.808 7.808 7.808 1.97-1.97-7.808-7.808 7.808-7.808z"></path>
    </symbol>

    <symbol id="check" viewBox="0 0 42 32">
      <path fill="#fff" style="fill: var(--color1, #fff); stroke: var(--color1, #fff)" stroke="#fff" stroke-linejoin="miter" stroke-linecap="butt" stroke-miterlimit="4" stroke-width="0.64" d="M6.262 15.206l-0.221-0.211-0.221 0.208-3.085 2.925 0.243 0.234 11.408 10.88 0.221-0.211 24.256-23.139-0.243-0.23-3.043-2.902-0.221 0.211-20.97 19.987-8.125-7.75z"></path>
    </symbol>

    <symbol id="email" viewBox="0 0 32 32">
      <path d="M26.667 5.333h-21.333c-1.467 0-2.653 1.2-2.653 2.667l-0.013 16c0 1.467 1.2 2.667 2.667 2.667h21.333c1.467 0 2.667-1.2 2.667-2.667v-16c0-1.467-1.2-2.667-2.667-2.667zM26.133 11l-9.427 5.893c-0.427 0.267-0.987 0.267-1.413 0l-9.427-5.893c-0.333-0.213-0.533-0.573-0.533-0.96 0-0.893 0.973-1.427 1.733-0.96l8.933 5.587 8.933-5.587c0.76-0.467 1.733 0.067 1.733 0.96 0 0.387-0.2 0.747-0.533 0.96z"></path>
    </symbol>

    <symbol id="person" viewBox="0 0 32 32">
      <path d="M16 16c2.947 0 5.333-2.387 5.333-5.333s-2.387-5.333-5.333-5.333c-2.947 0-5.333 2.387-5.333 5.333s2.387 5.333 5.333 5.333zM16 18.667c-3.56 0-10.667 1.787-10.667 5.333v1.333c0 0.733 0.6 1.333 1.333 1.333h18.667c0.733 0 1.333-0.6 1.333-1.333v-1.333c0-3.547-7.107-5.333-10.667-5.333z"></path>
    </symbol>

    <symbol id="phone" viewBox="0 0 32 32">
      <path d="M24.882 19.773l-3.268-0.373c-0.785-0.090-1.557 0.18-2.11 0.733l-2.367 2.367c-3.641-1.853-6.626-4.825-8.478-8.478l2.38-2.38c0.553-0.553 0.823-1.325 0.733-2.11l-0.373-3.242c-0.154-1.299-1.248-2.277-2.56-2.277h-2.226c-1.454 0-2.663 1.209-2.573 2.663 0.682 10.987 9.469 19.761 20.443 20.443 1.454 0.090 2.663-1.119 2.663-2.573v-2.226c0.013-1.3-0.965-2.393-2.264-2.547z"></path>
    </symbol>

    <symbol id="send" viewBox="0 0 32 32">
      <path d="M32 0l-32 18 10.227 3.788 15.773-14.788-11.998 16.186 0.010 0.004-0.012-0.004v8.814l5.735-6.691 7.265 2.691 5-28z"></path>
    </symbol>

    <symbol id="cross" viewBox="0 0 32 32">
      <path d="M23.734 10.304L22.23 8.8l-5.963 5.962L10.305 8.8l-1.504 1.504 5.962 5.962-5.962 5.963 1.504 1.504 5.962-5.963 5.963 5.963 1.504-1.504-5.963-5.963 5.963-5.962z" />
    </symbol>

    <symbol id="menu" viewBox="0 0 32 32">
      <path d="M6.4 11.734V9.6h19.2v2.134H6.4zm0 5.332h19.2v-2.133H6.4v2.133zm0 5.334h19.2v-2.134H6.4V22.4z" />
    </symbol>
  </defs>
</svg>