<svg aria-hidden="true" style="position: absolute; width: 0; height: 0; overflow: hidden;" version="1.1" xmlns="http://www.w3.org/2000/svg" xmlns:xlink="http://www.w3.org/1999/xlink">
  <defs>
    <symbol id="logo" viewBox="0 0 32 32">
      <path d="M16 32c-8.837 0-16-7.163-16-16s7.163-16 16-16c8.837 0 16 7.163 16 16s-7.163 16-16 16zM20.991 7.453c0.243-0.863-0.595-1.373-1.36-0.828l-10.678 7.607c-0.829 0.591-0.699 1.768 0.196 1.768h2.812v-0.022h5.48l-4.465 1.575-1.968 6.993c-0.243 0.863 0.594 1.373 1.359 0.828l10.678-7.607c0.829-0.591 0.699-1.768-0.196-1.768h-4.264l2.406-8.547z"></path>
    </symbol>

    <symbol id="arrow" viewBox="0 0 27 32">
      <path d="M0.4 0.939c1.309-0.856 2.617-0.586 3.79-0.18 1.624 0.586 3.204 1.352 4.648 2.254 6.543 4.327 10.468 10.501 12.093 18.118 0.406 1.938 0.542 3.966 0.812 6.175 1.805-1.037 2.752-3.065 4.557-4.237 0.226 0.901-0.226 1.487-0.587 1.983-1.489 2.028-3.023 4.056-4.602 6.040-0.767 0.946-1.354 1.037-2.166 0.225-1.715-1.668-2.752-3.696-3.068-6.039 0-0.090 0.135-0.225 0.316-0.451 1.94 0.496 1.489 2.975 3.159 3.876 0.722-3.11 0.18-6.084-0.632-8.969-0.857-3.020-1.985-5.904-3.79-8.473-1.76-2.524-3.971-4.552-6.407-6.445-2.391-1.938-5.099-3.155-8.122-3.876z"></path>
    </symbol>

    <symbol id="close" viewBox="0 0 32 32">
      <path d="M6.571 8.458l16.971 16.971 1.886-1.886-16.971-16.971-1.886 1.886z"></path>
      <path d="M8.457 25.428l16.971-16.971-1.886-1.886-16.971 16.971 1.886 1.886z"></path>
    </symbol>

    <symbol id="menu" viewBox="0 0 32 32">
      <path d="M4 22.667h24v-2.667h-24v2.667z"></path>
      <path d="M4 12h24v-2.667h-24v2.667z"></path>
    </symbol>
  </defs>
</svg>